<?xml version="1.0" encoding="UTF-8"?>
<svg version="1.1" xmlns="http://www.w3.org/2000/svg" width="168" height="187">
<path d="M0 0 C55.44 0 110.88 0 168 0 C168 61.71 168 123.42 168 187 C112.56 187 57.12 187 0 187 C0 125.29 0 63.58 0 0 Z " fill="#F93789" transform="translate(0,0)"/>
<path d="M0 0 C55.44 0 110.88 0 168 0 C168 61.71 168 123.42 168 187 C112.56 187 57.12 187 0 187 C0 125.29 0 63.58 0 0 Z M33 24 C32.31679688 24.59039063 31.63359375 25.18078125 30.9296875 25.7890625 C15.72387788 39.8022596 5.97609174 62.90084723 4.87353516 83.3449707 C4.40531783 98.94078287 5.11872955 114.34980829 11 129 C11.34804687 129.92941406 11.69609375 130.85882813 12.0546875 131.81640625 C17.05473291 144.61064011 24.4671377 154.3281747 34 164 C34.65742187 164.6703125 35.31484375 165.340625 35.9921875 166.03125 C50.76316734 179.97809792 69.70080996 184.49441872 89.48828125 184.21484375 C95.28586222 184.02026161 100.52403614 182.90201546 106 181 C106.98226562 180.6596875 107.96453125 180.319375 108.9765625 179.96875 C130.6887551 171.66537919 146.22140053 154.85629593 155.88427734 134.10058594 C166.54371923 109.90309929 166.98895713 81.81271302 158 57 C149.10489915 35.80018262 134.55009668 18.01857449 112.90625 9.0625 C84.29304003 -1.39824343 55.70289213 3.55931776 33 24 Z " fill="#FDFAFB" transform="translate(0,0)"/>
<path d="M0 0 C3.41420601 1.89450952 4.85622673 4.7843401 7 8 C7.59794497 10.5620281 8.01063359 13.12715603 8.4375 15.72265625 C8.83658575 18.18119771 8.83658575 18.18119771 11 20 C12.446822 20.32679184 13.90839253 20.59080352 15.375 20.8125 C18.65577947 21.50569695 19.94311312 21.95394872 22.625 24.125 C24.57099641 28.19390158 23.89045408 30.62193413 23 35 C23.66386719 34.79503906 24.32773438 34.59007812 25.01171875 34.37890625 C25.89472656 34.10949219 26.77773437 33.84007812 27.6875 33.5625 C28.55761719 33.29566406 29.42773438 33.02882812 30.32421875 32.75390625 C34.99927082 31.4367018 39.13432388 30.88684474 44 31 C44.33 29.68 44.66 28.36 45 27 C47.37538573 33.37977665 47.38425145 39.13253965 47.375 45.875 C47.37338867 47.08285156 47.37177734 48.29070312 47.37011719 49.53515625 C47.24102599 58.98159418 46.05901502 67.06640597 43 76 C42.54947266 77.47726563 42.54947266 77.47726563 42.08984375 78.984375 C35.80722004 98.2402087 21.72850429 114.82491449 3.83203125 124.203125 C-13.45403749 132.64234591 -30.9005321 133.0893655 -49 127 C-53.18676884 125.27520245 -57.16187751 123.40590274 -61 121 C-62.63388672 120.04480469 -62.63388672 120.04480469 -64.30078125 119.0703125 C-66.43742176 117.22644277 -66.95570037 116.21903473 -67.52246094 113.41674805 C-67.70257654 110.19470896 -67.6696895 107.03758771 -67.5625 103.8125 C-67.56056641 102.72646484 -67.55863281 101.64042969 -67.55664062 100.52148438 C-67.45617404 94.32604508 -66.67394766 88.99015089 -64.70141602 83.11987305 C-62.13160959 75.35320781 -62.96129988 67.76727898 -65 60 C-63.948125 59.9175 -62.89625 59.835 -61.8125 59.75 C-57.72952791 58.94679238 -55.9877273 57.80665291 -53 55 C-51.79082575 56.35341584 -50.58271334 57.70778036 -49.375 59.0625 C-48.6325 59.88621094 -47.89 60.70992187 -47.125 61.55859375 C-45 64 -45 64 -43.625 65.91015625 C-39.01543719 72.23390023 -31.91586166 74.84203425 -25 78 C-24.27941406 78.37382813 -23.55882812 78.74765625 -22.81640625 79.1328125 C-20.90814796 80.04385194 -19.11838169 80.57804471 -17.0625 81.0625 C-16.02802734 81.30806641 -16.02802734 81.30806641 -14.97265625 81.55859375 C-12.65521027 82.07715097 -10.33411653 82.56235315 -8 83 C-7.01 81.515 -7.01 81.515 -6 80 C-5.34 80 -4.68 80 -4 80 C-3.67 78.35 -3.34 76.7 -3 75 C-4.65 74.67 -6.3 74.34 -8 74 C-7.01 73.34 -6.02 72.68 -5 72 C-9.22053574 71.88929365 -9.22053574 71.88929365 -13.33203125 72.703125 C-17.08458726 73.12068614 -18.82472504 71.77679637 -22 69.8125 C-23.010625 69.20019531 -24.02125 68.58789062 -25.0625 67.95703125 C-27.85639616 66.09567224 -30.48896905 64.22946314 -33 62 C-33 61.34 -33 60.68 -33 60 C-31.2097939 59.32942113 -29.41778511 58.6636531 -27.625 58 C-26.62726563 57.62875 -25.62953125 57.2575 -24.6015625 56.875 C-22 56 -22 56 -20 56 C-19.525625 57.093125 -19.05125 58.18625 -18.5625 59.3125 C-16.66419508 62.72254592 -14.93918591 63.74069323 -11.25 64.9375 C-9.83998751 65.31729369 -8.42484566 65.68032309 -7 66 C-6.7525 65.360625 -6.505 64.72125 -6.25 64.0625 C-5.5464447 62.33878952 -4.81870997 60.62308872 -4.01171875 58.9453125 C-0.95049499 52.51117674 1.10832915 47.32498744 -1.25 40.25 C-2.82179883 37.11235517 -2.82179883 37.11235517 -4.5625 35 C-7.53929599 30.8583708 -8.3037669 26.01215383 -8 21 C-7.34 20.67 -6.68 20.34 -6 20 C-5.34786708 17.97536745 -5.34786708 17.97536745 -5 16 C-6.98 16.66 -8.96 17.32 -11 18 C-12.32 13.71 -13.64 9.42 -15 5 C-15.99 5.66 -16.98 6.32 -18 7 C-18.25 4.6875 -18.25 4.6875 -18 2 C-13.26569838 -2.99147356 -6.15378653 -1.20890954 0 0 Z " fill="#F62073" transform="translate(110,46)"/>
<path d="M0 0 C2.69114168 2.15733109 5.25616923 4.39082467 7.79296875 6.7265625 C8.42332031 7.26539062 9.05367187 7.80421875 9.703125 8.359375 C24.65870682 21.91819405 33.2220935 44.47941815 34.6953125 64.2734375 C34.72753906 65.08296875 34.75976562 65.8925 34.79296875 66.7265625 C34.88771484 68.49773437 34.88771484 68.49773437 34.984375 70.3046875 C35.97401162 97.2189226 27.05247292 122.46649845 8.9609375 142.4609375 C-3.1308554 155.25922549 -21.39502211 165.27515673 -39.23828125 165.9296875 C-60.63872916 166.30509201 -79.1865516 160.6187492 -95.2265625 146.05078125 C-107.94798002 133.74702997 -118.24705062 117.30031405 -121.83203125 99.7890625 C-122.07179688 98.64566406 -122.3115625 97.50226563 -122.55859375 96.32421875 C-127.32927275 69.85557201 -123.51237429 43.78725035 -109.20703125 20.7265625 C-97.09439818 3.57916026 -79.82322146 -9.71513647 -58.91015625 -13.8359375 C-37.47072206 -16.36886643 -17.79409542 -12.61408469 0 0 Z M-99.046875 18.98046875 C-112.05324219 35.51478364 -117.57587471 53.68071265 -117.51953125 74.5390625 C-117.53564453 75.72048828 -117.55175781 76.90191406 -117.56835938 78.11914062 C-117.5810979 101.3669417 -108.42047047 122.29439223 -92.20703125 138.7265625 C-78.53606053 152.20532274 -62.08139942 159.00101922 -42.80786133 159.11376953 C-24.75250512 158.75107306 -8.57698036 149.80269639 4.13671875 137.44921875 C16.80130662 124.06899493 22.71760799 109.23339394 26.79296875 91.7265625 C27.05775024 90.80121704 27.05775024 90.80121704 27.32788086 89.85717773 C30.68486768 74.47847746 28.1345005 57.29578389 22.79296875 42.7265625 C22.48230469 41.77136719 22.17164063 40.81617188 21.8515625 39.83203125 C15.73573591 22.41700935 0.90458419 6.86642995 -15.58203125 -1.0859375 C-17.44365979 -1.84859614 -19.31967341 -2.5768821 -21.20703125 -3.2734375 C-22.22925781 -3.6653125 -23.25148438 -4.0571875 -24.3046875 -4.4609375 C-52.20158994 -13.85778885 -80.32114877 -2.71759498 -99.046875 18.98046875 Z " fill="#FCE7EF" transform="translate(129.20703125,18.2734375)"/>
<path d="M0 0 C3.85555714 3.01144108 7.10038566 5.94719253 9.875 10 C15.42596415 17.68933028 26.00995376 23.67082313 35.30078125 25.4375 C35.98527344 25.540625 36.66976562 25.64375 37.375 25.75 C41.38262163 27.13193849 41.66387167 27.48538703 43.5625 31 C43.94148438 31.80050781 44.32046875 32.60101563 44.7109375 33.42578125 C46.55141735 37.10116375 48.9929483 40.25886436 51.44921875 43.54296875 C54.86493408 48.95476961 55.48157024 54.65166296 56.125 60.875 C56.21136719 61.65875 56.29773438 62.4425 56.38671875 63.25 C56.5970149 65.16603159 56.79932744 67.0829366 57 69 C39.6641577 77.43249613 23.11851575 78.09577393 5 72 C0.81323116 70.27520245 -3.16187751 68.40590274 -7 66 C-8.63388672 65.04480469 -8.63388672 65.04480469 -10.30078125 64.0703125 C-12.43742176 62.22644277 -12.95570037 61.21903473 -13.52246094 58.41674805 C-13.70257654 55.19470896 -13.6696895 52.03758771 -13.5625 48.8125 C-13.56056641 47.72646484 -13.55863281 46.64042969 -13.55664062 45.52148438 C-13.45617404 39.32604508 -12.67394766 33.99015089 -10.70141602 28.11987305 C-8.13160959 20.35320781 -8.96129988 12.76727898 -11 5 C-9.39125 4.87625 -9.39125 4.87625 -7.75 4.75 C-3.7261549 3.94523098 -2.51830747 3.12270126 0 0 Z " fill="#18072B" transform="translate(56,101)"/>
<path d="M0 0 C0.33 0 0.66 0 1 0 C4.44419134 9.41002278 4.44419134 9.41002278 4 14 C4.99 13.34 5.98 12.68 7 12 C7.99 12 8.98 12 10 12 C9.67 13.65 9.34 15.3 9 17 C8.34 17 7.68 17 7 17 C8.5340392 24.59536482 10.26069082 29.88878553 15 36 C17.17426473 43.64098749 14.54953207 50.38401446 10.875 57.125 C9.92977575 58.75766007 8.976027 60.3855654 8 62 C3.73230522 61.74895913 1.50162495 61.40348094 -1.875 58.6875 C-3.87181305 56.16211879 -4.39457487 55.02068495 -5 52 C-5.77085938 52.28875 -6.54171875 52.5775 -7.3359375 52.875 C-8.33882812 53.24625 -9.34171875 53.6175 -10.375 54 C-11.37273437 54.37125 -12.37046875 54.7425 -13.3984375 55.125 C-16 56 -16 56 -18 56 C-13.41222973 61.40701496 -7.55267181 65.32657336 -1 68 C2.83975221 68.26497079 6.26070755 67.87593662 10 67 C10.33 67.66 10.66 68.32 11 69 C10.01 69.495 10.01 69.495 9 70 C10.485 70.495 10.485 70.495 12 71 C11.67 72.65 11.34 74.3 11 76 C10.34 76 9.68 76 9 76 C8.34 77.32 7.68 78.64 7 80 C-8.76054567 77.40922537 -23.61130663 70.72421264 -33.3125 57.6875 C-33.76238281 57.03136719 -34.21226563 56.37523437 -34.67578125 55.69921875 C-36.07064069 53.72517337 -36.07064069 53.72517337 -39 52 C-40.3303125 53.2684375 -40.3303125 53.2684375 -41.6875 54.5625 C-43.19921875 56.00390625 -43.19921875 56.00390625 -45 57 C-47.70703125 56.65234375 -47.70703125 56.65234375 -50 56 C-50.64715133 53.9170757 -51.29267166 51.83364461 -51.9375 49.75 C-52.29714844 48.58984375 -52.65679687 47.4296875 -53.02734375 46.234375 C-53.34832031 45.16703125 -53.66929688 44.0996875 -54 43 C-54.30164062 42.04480469 -54.30164062 42.04480469 -54.609375 41.0703125 C-55.23184504 37.77122129 -55.26646013 34.47056362 -55.3125 31.125 C-55.34150391 30.43019531 -55.37050781 29.73539063 -55.40039062 29.01953125 C-55.4638876 23.83231697 -54.20989511 21.01390325 -51 17 C-50 16 -50 16 -46.75 15.6875 C-42.30810173 16.05765819 -41.03676706 16.79908337 -38 20 C-35.49947625 23.75078562 -33.88719666 27.14518679 -32.5625 31.4375 C-31.10832415 36.13933526 -28.78052928 39.96658401 -26 44 C-15.9441896 40.15341059 -15.9441896 40.15341059 -6.1875 35.625 C-3 34 -3 34 -1 34 C-0.67 30.04 -0.34 26.08 0 22 C-1.98 22 -3.96 22 -6 22 C-7 21 -7 21 -7.0625 17.125 C-7.04474114 15.74995685 -7.02407495 14.37494706 -7 13 C-7 12.01 -7 11.02 -7 10 C-4 7.8125 -4 7.8125 -1 6 C-1.66 5.67 -2.32 5.34 -3 5 C-1.125 1.125 -1.125 1.125 0 0 Z " fill="#FAF2F2" transform="translate(95,50)"/>
<path d="M0 0 C3.35057828 0.59457026 6.67473802 1.27751968 10 2 C10.82242188 2.15984375 11.64484375 2.3196875 12.4921875 2.484375 C15.88691168 3.33019853 18.23933981 4.01635176 20.42578125 6.84375 C21.24479149 8.35905234 22.0167105 9.9005148 22.74609375 11.4609375 C24.55947723 15.13289782 27.00238954 18.27148756 29.44921875 21.54296875 C32.86493408 26.95476961 33.48157024 32.65166296 34.125 38.875 C34.21136719 39.65875 34.29773438 40.4425 34.38671875 41.25 C34.5970149 43.16603159 34.79932744 45.0829366 35 47 C19.88457207 54.35244272 5.53154068 56.11367589 -10.83984375 51.94921875 C-11.55269531 51.63597656 -12.26554687 51.32273438 -13 51 C-14.09898702 47.70303895 -13.87124444 46.59505097 -13.0625 43.3125 C-12.86785156 42.50425781 -12.67320313 41.69601563 -12.47265625 40.86328125 C-12.31667969 40.24839844 -12.16070312 39.63351563 -12 39 C-11.01 39 -10.02 39 -9 39 C-3.67239676 32.59261484 0.03440793 26.14699808 -0.65234375 17.65625 C-0.82443359 16.34140625 -0.82443359 16.34140625 -1 15 C-1.12568359 13.56140625 -1.12568359 13.56140625 -1.25390625 12.09375 C-1.46372084 9.72251205 -1.71296572 7.36290722 -2 5 C-1.34 5 -0.68 5 0 5 C0 3.35 0 1.7 0 0 Z " fill="#580336" transform="translate(78,123)"/>
<path d="M0 0 C2.69114168 2.15733109 5.25616923 4.39082467 7.79296875 6.7265625 C8.42332031 7.26539062 9.05367187 7.80421875 9.703125 8.359375 C24.65870682 21.91819405 33.2220935 44.47941815 34.6953125 64.2734375 C34.72753906 65.08296875 34.75976562 65.8925 34.79296875 66.7265625 C34.88771484 68.49773437 34.88771484 68.49773437 34.984375 70.3046875 C35.97401162 97.2189226 27.05247292 122.46649845 8.9609375 142.4609375 C-3.1308554 155.25922549 -21.39502211 165.27515673 -39.23828125 165.9296875 C-60.63872916 166.30509201 -79.1865516 160.6187492 -95.2265625 146.05078125 C-107.94798002 133.74702997 -118.24705062 117.30031405 -121.83203125 99.7890625 C-122.07179688 98.64566406 -122.3115625 97.50226563 -122.55859375 96.32421875 C-127.32927275 69.85557201 -123.51237429 43.78725035 -109.20703125 20.7265625 C-97.09439818 3.57916026 -79.82322146 -9.71513647 -58.91015625 -13.8359375 C-37.47072206 -16.36886643 -17.79409542 -12.61408469 0 0 Z M-91.20703125 5.7265625 C-92.05007812 6.36722656 -92.893125 7.00789063 -93.76171875 7.66796875 C-108.53045511 20.10107428 -116.53253306 39.28385823 -120.20703125 57.7265625 C-120.39394531 58.63019531 -120.58085938 59.53382812 -120.7734375 60.46484375 C-123.8829945 83.85655633 -119.31417449 109.7873 -105.4453125 129.19140625 C-103.74344452 131.4101105 -101.98817104 133.57134085 -100.20703125 135.7265625 C-99.46453125 136.7165625 -98.72203125 137.7065625 -97.95703125 138.7265625 C-88.92873981 149.38290649 -76.39008627 156.64609309 -63.20703125 160.7265625 C-62.18609375 161.066875 -62.18609375 161.066875 -61.14453125 161.4140625 C-43.94095128 166.25256937 -25.7770231 161.76571922 -10.42578125 153.640625 C-5.59151114 150.765877 -1.3720534 147.49491588 2.79296875 143.7265625 C3.92992187 142.72882813 3.92992187 142.72882813 5.08984375 141.7109375 C11.69650588 135.55990724 16.23335638 128.43645251 20.79296875 120.7265625 C21.21449219 120.02917969 21.63601562 119.33179688 22.0703125 118.61328125 C33.88121566 97.2208422 34.65786095 69.87671758 28.39599609 46.77294922 C26.95164403 41.87150832 25.06185594 37.29750775 22.79296875 32.7265625 C22.13167969 31.34791016 22.13167969 31.34791016 21.45703125 29.94140625 C11.88178178 11.13476986 -3.76396622 -1.09924881 -23.203125 -8.3984375 C-47.90766905 -16.21966301 -71.1896119 -9.74004569 -91.20703125 5.7265625 Z " fill="#F82E80" transform="translate(129.20703125,18.2734375)"/>
<path d="M0 0 C3.41420601 1.89450952 4.85622673 4.7843401 7 8 C7.59794497 10.5620281 8.01063359 13.12715603 8.4375 15.72265625 C8.83658575 18.18119771 8.83658575 18.18119771 11 20 C12.446822 20.32679184 13.90839253 20.59080352 15.375 20.8125 C18.74958096 21.51463055 19.91976292 21.93122536 22.625 24.25 C24.36455533 27.72911065 24.09830728 29.31282556 23 33 C21.9375 35.375 21.9375 35.375 21 37 C21.639375 37.53625 22.27875 38.0725 22.9375 38.625 C25.48357385 41.55684261 26.07921738 43.11834816 26 47 C23.8125 49.875 23.8125 49.875 21 52 C19.68 52 18.36 52 17 52 C16.690625 52.639375 16.38125 53.27875 16.0625 53.9375 C15 56 15 56 14 57 C12.48071962 57.07179964 10.95832518 57.08392007 9.4375 57.0625 C8.61121094 57.05347656 7.78492187 57.04445312 6.93359375 57.03515625 C6.29550781 57.02355469 5.65742187 57.01195312 5 57 C4.731875 56.360625 4.46375 55.72125 4.1875 55.0625 C3.11332248 52.66868314 3.11332248 52.66868314 0 52 C0.0928125 50.2365625 0.0928125 50.2365625 0.1875 48.4375 C0.1875 43.27066434 -1.36157413 39.09718512 -4.5625 35 C-7.53929599 30.8583708 -8.3037669 26.01215383 -8 21 C-7.34 20.67 -6.68 20.34 -6 20 C-5.34786708 17.97536745 -5.34786708 17.97536745 -5 16 C-6.98 16.66 -8.96 17.32 -11 18 C-12.32 13.71 -13.64 9.42 -15 5 C-15.99 5.66 -16.98 6.32 -18 7 C-18.25 4.6875 -18.25 4.6875 -18 2 C-13.26569838 -2.99147356 -6.15378653 -1.20890954 0 0 Z " fill="#23062B" transform="translate(110,46)"/>
<path d="M0 0 C1.875 0.5 1.875 0.5 4 2 C4.74060433 4.05913689 5.18998954 6.07536651 5.60546875 8.22265625 C5.83651699 10.01554093 5.83651699 10.01554093 7 11 C7.1875 13.4375 7.1875 13.4375 7 16 C6.34 16.66 5.68 17.32 5 18 C5.26676204 19.98491642 5.26676204 19.98491642 6 22 C7.1577506 25.47325181 7.06866652 28.36067448 7 32 C8.32 32.66 9.64 33.32 11 34 C2.59627353 48.9611797 -7.79668333 60.75139202 -23 69 C-24.99621354 65.57190333 -25.5969169 62.34067705 -26.1875 58.4375 C-26.36667969 57.30183594 -26.54585938 56.16617188 -26.73046875 54.99609375 C-27 52 -27 52 -26 49 C-24.515 48.505 -24.515 48.505 -23 48 C-22.19787372 46.12612784 -22.19787372 46.12612784 -21.8125 43.9375 C-21.65394531 43.20402344 -21.49539062 42.47054687 -21.33203125 41.71484375 C-21.22246094 41.14894531 -21.11289063 40.58304688 -21 40 C-20.01 40 -19.02 40 -18 40 C-17.67 41.65 -17.34 43.3 -17 45 C-14.64360592 43.06110754 -14.64360592 43.06110754 -14.625 39.5625 C-14.810625 37.7990625 -14.810625 37.7990625 -15 36 C-16.31337396 34.9739266 -17.64664105 33.97272675 -19 33 C-19.375 29.9375 -19.375 29.9375 -19 27 C-18.34 26.34 -17.68 25.68 -17 25 C-15.68 25 -14.36 25 -13 25 C-13 23.35 -13 21.7 -13 20 C-11.68 19.67 -10.36 19.34 -9 19 C-9 20.98 -9 22.96 -9 25 C-7.68 25.33 -6.36 25.66 -5 26 C-5.41207985 28.88455894 -5.85716381 29.87014892 -8.0625 31.875 C-10.32926906 33.92358207 -10.32926906 33.92358207 -10.25 37.25 C-10.12625 38.61125 -10.12625 38.61125 -10 40 C-9.38125 39.505 -8.7625 39.01 -8.125 38.5 C-6 37 -6 37 -4 37 C-4 36.34 -4 35.68 -4 35 C-3.34 35 -2.68 35 -2 35 C-2.02320313 34.41992188 -2.04640625 33.83984375 -2.0703125 33.2421875 C-2.18250423 28.38588834 -1.87514915 24.57067605 0 20 C-1.65 20 -3.3 20 -5 20 C-5 18.68 -5 17.36 -5 16 C-5.66 16 -6.32 16 -7 16 C-7.25 13.6875 -7.25 13.6875 -7 11 C-6.38125 10.54625 -5.7625 10.0925 -5.125 9.625 C-2.06681906 7.28639105 -1.87812682 4.6476037 -1 1 C-0.67 0.67 -0.34 0.34 0 0 Z " fill="#BB054B" transform="translate(137,101)"/>
<path d="M0 0 C2 1 2 1 3.0625 4 C3.371875 4.99 3.68125 5.98 4 7 C4.33 7.33 4.66 7.66 5 8 C5.04080783 9.99958364 5.04254356 12.00045254 5 14 C5.66 14 6.32 14 7 14 C7 17.63 7 21.26 7 25 C8.32 25.33 9.64 25.66 11 26 C11 26.66 11 27.32 11 28 C11.99 28.33 12.98 28.66 14 29 C13.01 29 12.02 29 11 29 C11 31.31 11 33.62 11 36 C11.99 36 12.98 36 14 36 C14 35.01 14 34.02 14 33 C15.65 33.33 17.3 33.66 19 34 C20.32552864 36.72082195 21.34267447 38.873399 20.4296875 41.875 C20.00042969 42.8959375 20.00042969 42.8959375 19.5625 43.9375 C17.47560033 49.79671129 17.66781877 55.40798296 17.8125 61.5625 C17.82603516 62.66658203 17.83957031 63.77066406 17.85351562 64.90820312 C17.88855185 67.60599272 17.93767409 70.30272636 18 73 C13.79877458 73 12.83141388 71.29772255 9.875 68.375 C1.89845982 60.3159393 -6.61866882 49.28105193 -9 38 C-8.5859375 35.22265625 -8.5859375 35.22265625 -8 33 C-7.67 33 -7.34 33 -7 33 C-6.67 30.36 -6.34 27.72 -6 25 C-5.34 25 -4.68 25 -4 25 C-4.02320313 24.28714844 -4.04640625 23.57429688 -4.0703125 22.83984375 C-4.17776725 17.13706642 -3.88543607 12.44681533 -2 7 C-1.61749651 5.68966709 -1.24236903 4.37715632 -0.875 3.0625 C-0.58625 2.051875 -0.2975 1.04125 0 0 Z " fill="#C0044F" transform="translate(26,88)"/>
<path d="M0 0 C0.99 0.99 0.99 0.99 2 2 C1.68927173 7.32204804 0.09700984 11.8697687 -2.0625 16.6875 C-2.37340576 17.38447998 -2.68431152 18.08145996 -3.00463867 18.79956055 C-12.88813145 40.28809145 -29.47550851 55.67831569 -51.46875 63.92578125 C-68.69845952 69.98489576 -88.50180895 67.93403217 -105 60.5625 C-124.02934965 50.65138039 -137.74333723 34.68537679 -146 15 C-146.6953125 11.578125 -146.6953125 11.578125 -147 9 C-146.01 9 -145.02 9 -144 9 C-143.38125 10.54107422 -143.38125 10.54107422 -142.75 12.11328125 C-139.10133384 20.95781923 -135.06815046 28.51551464 -129 36 C-128.236875 37.03125 -127.47375 38.0625 -126.6875 39.125 C-116.99967963 49.48871482 -105.50826562 56.81887016 -92 61 C-91.319375 61.226875 -90.63875 61.45375 -89.9375 61.6875 C-72.73322057 66.52620359 -54.57693749 62.03652332 -39.22265625 53.91796875 C-34.39231678 51.0431849 -30.16804825 47.75927294 -26 44 C-25.31550781 43.40832031 -24.63101563 42.81664062 -23.92578125 42.20703125 C-11.72270384 30.96293831 -5.26416511 15.3610064 0 0 Z " fill="#C11F5A" transform="translate(158,117)"/>
<path d="M0 0 C4.44189827 0.37015819 5.71323294 1.11158337 8.75 4.3125 C11.71882385 8.76573577 13.49572782 13.08805742 15.0390625 18.19921875 C15.76545297 20.35843437 16.6871837 22.30041615 17.75 24.3125 C17.11191406 24.79460937 16.47382812 25.27671875 15.81640625 25.7734375 C14.99011719 26.40507813 14.16382812 27.03671875 13.3125 27.6875 C12.48878906 28.31398438 11.66507813 28.94046875 10.81640625 29.5859375 C8.66471908 31.15003904 8.66471908 31.15003904 7.75 33.3125 C3.6755567 31.95435223 2.32978049 29.1816574 0.0625 25.75 C-0.35322266 25.13447266 -0.76894531 24.51894531 -1.19726562 23.88476562 C-2.22193162 22.36543329 -3.23690678 20.83957343 -4.25 19.3125 C-3.68410156 20.42109375 -3.11820313 21.5296875 -2.53515625 22.671875 C-1.79405825 24.13530903 -1.05318456 25.59885667 -0.3125 27.0625 C0.06068359 27.79210937 0.43386719 28.52171875 0.81835938 29.2734375 C1.17607422 29.98242188 1.53378906 30.69140625 1.90234375 31.421875 C2.3972229 32.39592285 2.3972229 32.39592285 2.90209961 33.38964844 C3.76452116 35.34543079 4.29374179 37.22790694 4.75 39.3125 C1.75 41.3125 1.75 41.3125 -0.9375 40.9375 C-1.700625 40.73125 -2.46375 40.525 -3.25 40.3125 C-3.89715133 38.2295757 -4.54267166 36.14614461 -5.1875 34.0625 C-5.54714844 32.90234375 -5.90679687 31.7421875 -6.27734375 30.546875 C-6.59832031 29.47953125 -6.91929688 28.4121875 -7.25 27.3125 C-7.45109375 26.67570312 -7.6521875 26.03890625 -7.859375 25.3828125 C-8.48184504 22.08372129 -8.51646013 18.78306362 -8.5625 15.4375 C-8.59150391 14.74269531 -8.62050781 14.04789063 -8.65039062 13.33203125 C-8.7138876 8.14481697 -7.45989511 5.32640325 -4.25 1.3125 C-3.25 0.3125 -3.25 0.3125 0 0 Z " fill="#FAF6F7" transform="translate(48.25,65.6875)"/>
<path d="M0 0 C1.20705054 2.29620313 2.23161176 4.58244663 3.19140625 6.99609375 C10.22434503 24.64856971 21.32512464 38.53313773 38 48 C38.63035156 48.38800781 39.26070312 48.77601563 39.91015625 49.17578125 C53.05761957 56.65972191 70.16775892 58.25389611 84.61450195 54.50732422 C93.41735013 51.97490427 101.67769587 48.55389451 108.8125 42.6875 C111.50499194 40.61043479 113.6552632 40.31113831 117 40 C114.42118112 47.02011805 105.30101112 51.3100484 98.89453125 54.58984375 C95.96111175 55.86473809 93.02909674 56.97421027 90 58 C88.62134766 58.47759766 88.62134766 58.47759766 87.21484375 58.96484375 C69.77299604 64.17100737 51.58463706 61.09350794 35.71484375 52.63671875 C31.50332278 50.09768668 27.74696396 47.17330087 24 44 C23.39671875 43.52949219 22.7934375 43.05898437 22.171875 42.57421875 C10.93494003 33.58973246 2.34325236 19.79295441 -1.8203125 6.0859375 C-2.04360435 3.49381039 -1.33732301 2.18924729 0 0 Z " fill="#F1E3E8" transform="translate(15,120)"/>
<path d="M0 0 C2.64 0.66 5.28 1.32 8 2 C7.98839844 2.67546875 7.97679688 3.3509375 7.96484375 4.046875 C7.95582031 4.93890625 7.94679688 5.8309375 7.9375 6.75 C7.92589844 7.63171875 7.91429688 8.5134375 7.90234375 9.421875 C7.99173802 11.7818838 8.33087179 13.74498524 9 16 C3.25 17.125 3.25 17.125 1 16 C1 16.66 1 17.32 1 18 C2.32 18.33 3.64 18.66 5 19 C4.34 20.32 3.68 21.64 3 23 C-0.82097239 22.46930939 -3.06171403 21.50298434 -6 19 C-5.64627214 22.18355075 -5.46911295 23.60305827 -2.96875 25.71875 C-0.21036343 28.91497571 -0.5962985 31.10005937 -0.75 35.25 C-0.78609375 36.51328125 -0.8221875 37.7765625 -0.859375 39.078125 C-0.92898437 40.52445313 -0.92898437 40.52445313 -1 42 C-2.16278263 40.83937868 -3.32508291 39.67827125 -4.48535156 38.51513672 C-5.50488591 37.4952737 -6.52774427 36.478724 -7.55371094 35.46533203 C-9.17924295 33.84826115 -10.77794328 32.20766084 -12.375 30.5625 C-12.93316406 30.01529297 -13.49132813 29.46808594 -14.06640625 28.90429688 C-15.58502315 27.32006073 -16.88582868 25.89182897 -18 24 C-17.8515625 20.58984375 -17.8515625 20.58984375 -17 18 C-16.01 18 -15.02 18 -14 18 C-14 17.01 -14 16.02 -14 15 C-12.68 14.67 -11.36 14.34 -10 14 C-10 11.36 -10 8.72 -10 6 C-8.68 6 -7.36 6 -6 6 C-5.67 6.99 -5.34 7.98 -5 9 C-2.28404014 5.8459821 -1.03153759 4.12615036 0 0 Z " fill="#F9E1DE" transform="translate(74,39)"/>
<path d="M0 0 C1.875 0.5 1.875 0.5 4 2 C4.74060433 4.05913689 5.18998954 6.07536651 5.60546875 8.22265625 C5.83651699 10.01554093 5.83651699 10.01554093 7 11 C7.1875 13.4375 7.1875 13.4375 7 16 C6.34 16.66 5.68 17.32 5 18 C5.26676204 19.98491642 5.26676204 19.98491642 6 22 C7.1577506 25.47325181 7.06866652 28.36067448 7 32 C8.32 32.66 9.64 33.32 11 34 C9.88920661 37.57040732 8.64434111 40.32026618 6 43 C1.31270828 44.11475794 -3.19940109 44.16240186 -8 44 C-8 43.01 -8 42.02 -8 41 C-8.66 40.67 -9.32 40.34 -10 40 C-6.25 37 -6.25 37 -4 37 C-4 36.34 -4 35.68 -4 35 C-3.34 35 -2.68 35 -2 35 C-2.02320313 34.41992188 -2.04640625 33.83984375 -2.0703125 33.2421875 C-2.18250423 28.38588834 -1.87514915 24.57067605 0 20 C-1.65 20 -3.3 20 -5 20 C-5 18.68 -5 17.36 -5 16 C-5.66 16 -6.32 16 -7 16 C-7.25 13.6875 -7.25 13.6875 -7 11 C-6.38125 10.54625 -5.7625 10.0925 -5.125 9.625 C-2.06681906 7.28639105 -1.87812682 4.6476037 -1 1 C-0.67 0.67 -0.34 0.34 0 0 Z " fill="#C1044B" transform="translate(137,101)"/>
<path d="M0 0 C3.10343559 -0.43448098 5.91069154 -0.5915697 9 0 C10.92355227 1.59667411 12.20351644 3.21594291 13.61328125 5.2734375 C15.20827302 7.25931458 16.67537921 8.01860359 19 9 C19 9.66 19 10.32 19 11 C19.99 11 20.98 11 22 11 C21.67 12.32 21.34 13.64 21 15 C18.69 15 16.38 15 14 15 C18.30993852 17.46282201 21.08692756 18.10917939 26 18 C26.99 18.66 27.98 19.32 29 20 C28.125 24.875 28.125 24.875 27 26 C17.91592145 25.93923693 9.55778825 23.85259608 1 21 C1.14308594 19.98292969 1.14308594 19.98292969 1.2890625 18.9453125 C2.09278583 12.19777475 1.72371888 6.56722647 0 0 Z " fill="#10113D" transform="translate(45,106)"/>
<path d="M0 0 C2.43519967 0.88516209 3.5014413 1.89870031 5.23681641 3.80810547 C5.80142578 4.42298828 6.36603516 5.03787109 6.94775391 5.67138672 C7.52525391 6.31720703 8.10275391 6.96302734 8.69775391 7.62841797 C9.28298828 8.26650391 9.86822266 8.90458984 10.47119141 9.56201172 C12.89371441 12.22345328 15.07045305 14.74996669 17.07275391 17.75341797 C17.40275391 13.46341797 17.73275391 9.17341797 18.07275391 4.75341797 C24.08649257 10.76715664 26.58988203 19.38363875 27.07275391 27.75341797 C22.78275391 29.40341797 18.49275391 31.05341797 14.07275391 32.75341797 C10.09260811 28.77327218 8.34799843 24.76125488 6.76025391 19.44091797 C4.98491025 14.01370162 2.44276705 7.49932839 -2.87255859 4.74560547 C-4.97628554 4.09202483 -4.97628554 4.09202483 -7.92724609 3.75341797 C-2.59792795 -0.33239261 -2.59792795 -0.33239261 0 0 Z " fill="#1B1F46" transform="translate(54.92724609375,62.24658203125)"/>
<path d="M0 0 C3.41420601 1.89450952 4.85622673 4.7843401 7 8 C6.625 11.1875 6.625 11.1875 6 14 C5.01 14.33 4.02 14.66 3 15 C2.67 15.66 2.34 16.32 2 17 C1.34 16.67 0.68 16.34 0 16 C0.33 18.97 0.66 21.94 1 25 C-0.98 25.99 -0.98 25.99 -3 27 C-2.67 28.98 -2.34 30.96 -2 33 C-2.99 33.66 -3.98 34.32 -5 35 C-8.44419134 25.58997722 -8.44419134 25.58997722 -8 21 C-7.34 20.67 -6.68 20.34 -6 20 C-5.34786708 17.97536745 -5.34786708 17.97536745 -5 16 C-6.98 16.66 -8.96 17.32 -11 18 C-12.32 13.71 -13.64 9.42 -15 5 C-15.99 5.66 -16.98 6.32 -18 7 C-18.25 4.6875 -18.25 4.6875 -18 2 C-13.26569838 -2.99147356 -6.15378653 -1.20890954 0 0 Z " fill="#240932" transform="translate(110,46)"/>
<path d="M0 0 C2.41522219 0.9415273 4.78373234 1.93747197 7.140625 3.015625 C7.183346 4.68174405 7.18126332 6.34945385 7.140625 8.015625 C6.140625 9.015625 6.140625 9.015625 4.14453125 9.1484375 C3.33886719 9.14585938 2.53320312 9.14328125 1.703125 9.140625 C0.90003906 9.14320312 0.09695312 9.14578125 -0.73046875 9.1484375 C-2.859375 9.015625 -2.859375 9.015625 -4.859375 8.015625 C-4.941875 8.7375 -5.024375 9.459375 -5.109375 10.203125 C-6.00687701 13.56875754 -7.5708028 15.43175316 -9.859375 18.015625 C-10.519375 16.695625 -11.179375 15.375625 -11.859375 14.015625 C-12.519375 14.015625 -13.179375 14.015625 -13.859375 14.015625 C-13.7975 14.94375 -13.735625 15.871875 -13.671875 16.828125 C-13.859375 20.015625 -13.859375 20.015625 -15.171875 21.890625 C-16.859375 23.015625 -16.859375 23.015625 -19.859375 23.015625 C-20.27547734 20.67504934 -20.59437972 18.3761214 -20.859375 16.015625 C-20.97410156 15.13519531 -21.08882812 14.25476563 -21.20703125 13.34765625 C-21.51702937 9.26131745 -21.63943009 6.26541354 -19.42578125 2.71875 C-13.28024844 -3.46387858 -7.76136348 -2.6719448 0 0 Z " fill="#290F35" transform="translate(78.859375,30.984375)"/>
<path d="M0 0 C0.99 0.66 1.98 1.32 3 2 C2.39671875 2.9178125 1.7934375 3.835625 1.171875 4.78125 C-13.21697087 26.80168252 -19.97123909 51.17758234 -14.97143555 77.5925293 C-14.36782474 80.40805839 -13.68171148 83.20251042 -13 86 C-12.64959496 87.99707972 -12.31080325 89.99637517 -12 92 C-13.485 92.99 -13.485 92.99 -15 94 C-15.65192688 91.50145233 -16.29663064 89.0013863 -16.9375 86.5 C-17.11990234 85.80390625 -17.30230469 85.1078125 -17.49023438 84.390625 C-24.06586205 58.56634177 -19.60461863 31.90083733 -6.71484375 8.80078125 C-4.7194311 5.54175876 -2.61725308 2.77587448 0 0 Z " fill="#F8287C" transform="translate(25,33)"/>
<path d="M0 0 C0.33 0 0.66 0 1 0 C1 2.64 1 5.28 1 8 C2.32 8.33 3.64 8.66 5 9 C5 16.92 5 24.84 5 33 C1.36844193 33 0.55911485 31.92088495 -1.92260742 29.44262695 C-2.40189697 28.94593506 -2.88118652 28.44924316 -3.375 27.9375 C-3.86524658 27.43887451 -4.35549316 26.94024902 -4.8605957 26.42651367 C-8.33431067 22.83691164 -11.29913801 19.19099274 -14 15 C-13.34 13.68 -12.68 12.36 -12 11 C-9.36 11 -6.72 11 -4 11 C-4 9.35 -4 7.7 -4 6 C-3.01 6 -2.02 6 -1 6 C-0.67 4.02 -0.34 2.04 0 0 Z " fill="#BA0850" transform="translate(39,128)"/>
<path d="M0 0 C3.79078461 3.58204096 6.52136767 7.54169021 9.4140625 11.85546875 C10.82398333 14.1008371 10.82398333 14.1008371 13 15 C13.185625 14.443125 13.37125 13.88625 13.5625 13.3125 C15.66360714 9.93245808 18.70665994 8.14859619 22 6 C22.33 6.66 22.66 7.32 23 8 C21.7934375 8.556875 21.7934375 8.556875 20.5625 9.125 C17.68827104 10.8109337 17.68827104 10.8109337 17.1875 14.1875 C17.0946875 15.5796875 17.0946875 15.5796875 17 17 C19.01211967 19.23002588 19.01211967 19.23002588 22 21 C28.23892554 20.6666223 33.79071895 18.97335056 39.6875 17 C44.44162036 15.43132527 49.06713499 13.90545897 54 13 C54.66 12.67 55.32 12.34 56 12 C54.5682479 17.01113235 52.01554307 18.94469549 48 22 C47.505 20.02 47.505 20.02 47 18 C46.22914062 18.28875 45.45828125 18.5775 44.6640625 18.875 C43.66117188 19.24625 42.65828125 19.6175 41.625 20 C40.62726563 20.37125 39.62953125 20.7425 38.6015625 21.125 C36 22 36 22 34 22 C34.99 23.32 35.98 24.64 37 26 C36.40832031 26.04898438 35.81664062 26.09796875 35.20703125 26.1484375 C34.41683594 26.22320312 33.62664062 26.29796875 32.8125 26.375 C32.03519531 26.44460937 31.25789063 26.51421875 30.45703125 26.5859375 C27.76378783 27.03980682 25.49657006 27.90913635 23 29 C22.29423828 28.06027344 22.29423828 28.06027344 21.57421875 27.1015625 C20.95160156 26.28429687 20.32898438 25.46703125 19.6875 24.625 C19.07261719 23.81289062 18.45773438 23.00078125 17.82421875 22.1640625 C16.00519317 19.80220611 16.00519317 19.80220611 13 18 C12.01 18.66 11.02 19.32 10 20 C8.51494131 17.41989804 7.03682689 14.83622441 5.5625 12.25 C5.14162109 11.52039063 4.72074219 10.79078125 4.28710938 10.0390625 C3.68286133 8.97558594 3.68286133 8.97558594 3.06640625 7.890625 C2.69459229 7.24125977 2.32277832 6.59189453 1.93969727 5.92285156 C0.9812968 3.96172866 0.4496957 2.13035565 0 0 Z " fill="#EDC1CC" transform="translate(43,84)"/>
<path d="M0 0 C0.66 0.66 1.32 1.32 2 2 C1.68927173 7.32204804 0.09700984 11.8697687 -2.0625 16.6875 C-2.37340576 17.38447998 -2.68431152 18.08145996 -3.00463867 18.79956055 C-11.51214752 37.29644933 -25.83668699 53.40285431 -45 61 C-45.99 60.01 -46.98 59.02 -48 58 C-47.24976562 57.6596875 -46.49953125 57.319375 -45.7265625 56.96875 C-38.29911524 53.45147019 -32.13461113 49.45761669 -26 44 C-25.31292969 43.40703125 -24.62585938 42.8140625 -23.91796875 42.203125 C-11.72440838 30.94753081 -5.26519615 15.36401499 0 0 Z " fill="#E31F64" transform="translate(158,117)"/>
<path d="M0 0 C0.66 0.66 1.32 1.32 2 2 C1.01 2.495 1.01 2.495 0 3 C-0.65555119 5.52733235 -0.65555119 5.52733235 -1 8 C-0.34 8 0.32 8 1 8 C1 9.32 1 10.64 1 12 C2.65 12 4.3 12 6 12 C6.042721 13.66611905 6.04063832 15.33382885 6 17 C5.67 17.33 5.34 17.66 5 18 C4.76807135 19.51469448 4.58784762 21.03754562 4.4375 22.5625 C4.35371094 23.38878906 4.26992187 24.21507812 4.18359375 25.06640625 C4.09271484 26.02353516 4.09271484 26.02353516 4 27 C3.34 27 2.68 27 2 27 C2 27.66 2 28.32 2 29 C-0.31 30.32 -2.62 31.64 -5 33 C-5.3125 29.8125 -5.3125 29.8125 -5 26 C-2.5625 23.25 -2.5625 23.25 0 21 C0.33 20.01 0.66 19.02 1 18 C-0.32 17.67 -1.64 17.34 -3 17 C-3.33 14.36 -3.66 11.72 -4 9 C-4.7425 8.938125 -5.485 8.87625 -6.25 8.8125 C-9.8185739 7.75814862 -10.92245228 6.00090227 -13 3 C-9.47231026 -0.52768974 -4.80369193 -0.32024613 0 0 Z " fill="#F5166A" transform="translate(131,109)"/>
<path d="M0 0 C0.33 0 0.66 0 1 0 C4.44419134 9.41002278 4.44419134 9.41002278 4 14 C4.99 13.34 5.98 12.68 7 12 C7.99 12 8.98 12 10 12 C9.67 13.65 9.34 15.3 9 17 C8.34 17 7.68 17 7 17 C7 17.99 7 18.98 7 20 C5.7934375 20.8971875 5.7934375 20.8971875 4.5625 21.8125 C1.71154069 23.81773871 1.71154069 23.81773871 1.1875 27.25 C1.125625 28.1575 1.06375 29.065 1 30 C0.67 30 0.34 30 0 30 C0 27.36 0 24.72 0 22 C-0.969375 22.020625 -1.93875 22.04125 -2.9375 22.0625 C-6 22 -6 22 -7 21 C-7.04315144 18.32461085 -7.04680441 15.67305179 -7 13 C-7 12.01 -7 11.02 -7 10 C-4 7.8125 -4 7.8125 -1 6 C-1.66 5.67 -2.32 5.34 -3 5 C-1.125 1.125 -1.125 1.125 0 0 Z " fill="#F8DFDF" transform="translate(95,50)"/>
<path d="M0 0 C3.875 2.625 3.875 2.625 5 6 C5.03954234 8.33299825 5.04401732 10.66708189 5 13 C6.32 13.66 7.64 14.32 9 15 C7.88920661 18.57040732 6.64434111 21.32026618 4 24 C-0.68729172 25.11475794 -5.19940109 25.16240186 -10 25 C-10 24.01 -10 23.02 -10 22 C-10.66 21.67 -11.32 21.34 -12 21 C-8.25 18 -8.25 18 -6 18 C-6 17.34 -6 16.68 -6 16 C-5.34 16 -4.68 16 -4 16 C-4 13.03 -4 10.06 -4 7 C-3.67 7 -3.34 7 -3 7 C-2.67 11.62 -2.34 16.24 -2 21 C-0.85097354 18.70194709 -0.89738436 17.45163665 -0.9375 14.90234375 C-0.94523438 14.10119141 -0.95296875 13.30003906 -0.9609375 12.47460938 C-0.97382813 11.63736328 -0.98671875 10.80011719 -1 9.9375 C-1.04574281 6.95278175 -1.04706907 3.98594428 -1 1 C-0.67 0.67 -0.34 0.34 0 0 Z " fill="#D90857" transform="translate(139,120)"/>
<path d="M0 0 C0.474375 1.093125 0.94875 2.18625 1.4375 3.3125 C3.33580492 6.72254592 5.06081409 7.74069323 8.75 8.9375 C10.16001249 9.31729369 11.57515434 9.68032309 13 10 C11.75023244 13.65316671 11.32901247 14.78065836 8 17 C3.28719322 16.72735829 0.26025028 15.21881498 -3.625 12.625 C-4.54539062 12.01914063 -5.46578125 11.41328125 -6.4140625 10.7890625 C-7.26742187 10.19867188 -8.12078125 9.60828125 -9 9 C-9.77085938 8.47148438 -10.54171875 7.94296875 -11.3359375 7.3984375 C-11.88507813 6.93695313 -12.43421875 6.47546875 -13 6 C-13 5.34 -13 4.68 -13 4 C-11.2097939 3.32942113 -9.41778511 2.6636531 -7.625 2 C-6.62726563 1.62875 -5.62953125 1.2575 -4.6015625 0.875 C-2 0 -2 0 0 0 Z " fill="#550F34" transform="translate(90,102)"/>
<path d="M0 0 C0.66 0.33 1.32 0.66 2 1 C2.01458252 1.61818604 2.02916504 2.23637207 2.04418945 2.87329102 C2.36985003 15.2725587 3.15689894 26.90136884 6 39 C6.34857051 40.99740074 6.68671169 42.99676223 7 45 C6.01 45.66 5.02 46.32 4 47 C3.34807312 44.50145233 2.70336936 42.0013863 2.0625 39.5 C1.78889648 38.45585938 1.78889648 38.45585938 1.50976562 37.390625 C-0.69554591 28.72976514 -1.16022208 20.46781629 -1.125 11.5625 C-1.12886719 10.55767578 -1.13273438 9.55285156 -1.13671875 8.51757812 C-1.13542969 7.56431641 -1.13414062 6.61105469 -1.1328125 5.62890625 C-1.13168457 4.76338135 -1.13055664 3.89785645 -1.12939453 3.00610352 C-1 1 -1 1 0 0 Z " fill="#FA2F7A" transform="translate(6,80)"/>
<path d="M0 0 C2.99628539 2.99628539 2.7249286 6.58493471 3.125 10.625 C3.21136719 11.42679688 3.29773438 12.22859375 3.38671875 13.0546875 C3.59896327 15.03563635 3.80049931 17.01772718 4 19 C-1.625 22 -1.625 22 -5 22 C-6.2982126 16.23918159 -7.25706972 10.91260345 -7 5 C-6.01 6.32 -5.02 7.64 -4 9 C-2.10134397 6.02819057 -0.64544429 3.48539917 0 0 Z " fill="#370328" transform="translate(109,151)"/>
<path d="M0 0 C2.68790473 3.43454494 3.36525476 5.82835485 3.12109375 10.1640625 C1.81667802 17.19145537 -1.06881587 22.78599732 -4.75 28.875 C-6.4 28.875 -8.05 28.875 -9.75 28.875 C-9.16089844 27.83601563 -8.57179688 26.79703125 -7.96484375 25.7265625 C-2.27004358 15.86069856 -2.27004358 15.86069856 -1.9140625 4.8046875 C-3.18821156 1.86342751 -5.00379863 0.42413924 -7.75 -1.125 C-4.06003434 -2.49555868 -3.19997306 -2.47270646 0 0 Z " fill="#EECDD8" transform="translate(107.75,83.125)"/>
<path d="M0 0 C0.309375 0.9590625 0.309375 0.9590625 0.625 1.9375 C1.89538209 4.34925077 1.89538209 4.34925077 5.125 4.75 C6.07375 4.8325 7.0225 4.915 8 5 C8.08121924 6.60332791 8.13929134 8.20784026 8.1875 9.8125 C8.22230469 10.70582031 8.25710937 11.59914063 8.29296875 12.51953125 C8 15 8 15 6.7421875 16.68359375 C4.8725235 18.09632193 3.03290932 19.20033702 0.9375 20.25 C-0.10083984 20.78367187 -0.10083984 20.78367187 -1.16015625 21.328125 C-1.76730469 21.54984375 -2.37445313 21.7715625 -3 22 C-3.66 21.67 -4.32 21.34 -5 21 C-2.69 19.02 -0.38 17.04 2 15 C0.02 12.69 -1.96 10.38 -4 8 C-2.68 7.34 -1.36 6.68 0 6 C0 4.02 0 2.04 0 0 Z " fill="#F9297E" transform="translate(87,67)"/>
<path d="M0 0 C0.33 0.66 0.66 1.32 1 2 C0.01 2.495 0.01 2.495 -1 3 C-0.01 3.33 0.98 3.66 2 4 C1.67 5.65 1.34 7.3 1 9 C0.34 9 -0.32 9 -1 9 C-1.66 10.32 -2.32 11.64 -3 13 C-5.97 12.01 -8.94 11.02 -12 10 C-11.67 9.030625 -11.34 8.06125 -11 7.0625 C-9.94826637 4.37850426 -9.94826637 4.37850426 -10 3 C-6.75055634 -0.12446506 -4.41501775 -0.30102394 0 0 Z " fill="#F6D8D9" transform="translate(105,117)"/>
<path d="M0 0 C1 1 1 1 1.0625 3.5625 C1.041875 4.366875 1.02125 5.17125 1 6 C-2.6413547 8.33046701 -5.7524747 8.30891093 -10 8 C-10.99 7.34 -11.98 6.68 -13 6 C-13.1875 2.375 -13.1875 2.375 -13 -1 C-4.48060345 -2.44396552 -4.48060345 -2.44396552 0 0 Z " fill="#1C1A48" transform="translate(113,48)"/>
<path d="M0 0 C1.32 0.66 2.64 1.32 4 2 C3.63076923 8.4 3.63076923 8.4 0.4375 11.4375 C-0.7690625 12.2109375 -0.7690625 12.2109375 -2 13 C-4.31 11.02 -6.62 9.04 -9 7 C-8.67 5.35 -8.34 3.7 -8 2 C-7.05125 2.04125 -6.1025 2.0825 -5.125 2.125 C-1.89755144 2.34973818 -1.89755144 2.34973818 0 0 Z " fill="#F3196C" transform="translate(42,43)"/>
<path d="M0 0 C0.66 0 1.32 0 2 0 C5.14545177 13.11450455 2.55071819 27.01866634 0 40 C-1.546875 38.859375 -1.546875 38.859375 -3 37 C-2.890625 34.453125 -2.890625 34.453125 -2.25 31.25 C-1.07675498 24.36985944 -0.63912465 17.59746116 -0.375 10.625 C-0.33536133 9.58375977 -0.29572266 8.54251953 -0.25488281 7.46972656 C-0.16445129 4.97995605 -0.07916478 2.49015057 0 0 Z " fill="#F02D73" transform="translate(161,80)"/>
<path d="M0 0 C2.99220268 1.36370299 5.29026529 2.94908083 7.75 5.125 C8.67039062 5.93324219 8.67039062 5.93324219 9.609375 6.7578125 C10.06828125 7.16773437 10.5271875 7.57765625 11 8 C10.67 9.32 10.34 10.64 10 12 C10.99 12.33 11.98 12.66 13 13 C13.33 13.33 13.66 13.66 14 14 C14.33 13.34 14.66 12.68 15 12 C16 13 16 13 16.09765625 15.06640625 C16.08605469 15.89011719 16.07445313 16.71382812 16.0625 17.5625 C16.05347656 18.38878906 16.04445313 19.21507813 16.03515625 20.06640625 C16.02355469 20.70449219 16.01195313 21.34257813 16 22 C12.16522139 18.18660491 8.36041683 14.34843641 4.625 10.4375 C4.06683594 9.87353516 3.50867187 9.30957031 2.93359375 8.72851562 C1.3515625 7.05859375 1.3515625 7.05859375 -1 4 C-0.64697266 1.80883789 -0.64697266 1.80883789 0 0 Z " fill="#F1EBED" transform="translate(57,59)"/>
<path d="M0 0 C6.5053093 2.89124858 10.11845402 7.23313169 14 13 C11.36 14.65 8.72 16.3 6 18 C4.99600476 15.37646482 3.99665555 12.75132205 3 10.125 C2.57074219 9.00544922 2.57074219 9.00544922 2.1328125 7.86328125 C0 2.2265625 0 2.2265625 0 0 Z " fill="#F8E6EA" transform="translate(76,70)"/>
<path d="M0 0 C-1.39456553 2.78913106 -2.78848502 3.00840365 -5.6875 4.125 C-15.13547543 7.22457882 -25.17921374 6.34081746 -35 6 C-35 5.34 -35 4.68 -35 4 C-33.63681641 3.96132812 -33.63681641 3.96132812 -32.24609375 3.921875 C-23.76647248 3.53920491 -16.34820842 2.26987144 -8.2421875 -0.2578125 C-4.99453284 -1.00125152 -3.15510509 -0.9405785 0 0 Z " fill="#C41B53" transform="translate(113,177)"/>
<path d="M0 0 C0.33 0.66 0.66 1.32 1 2 C1.99 2.33 2.98 2.66 4 3 C3.01 3 2.02 3 1 3 C1 5.31 1 7.62 1 10 C1.99 10 2.98 10 4 10 C4 9.01 4 8.02 4 7 C5.65 7.33 7.3 7.66 9 8 C10.36993985 10.88408389 11.2431252 13.00975285 10.46484375 16.1796875 C9.71202914 18.14750987 8.86184251 20.07742824 8 22 C6.68 22 5.36 22 4 22 C3.67 18.7 3.34 15.4 3 12 C2.01 11.67 1.02 11.34 0 11 C0 7.37 0 3.74 0 0 Z " fill="#EA1266" transform="translate(36,114)"/>
<path d="M0 0 C2.64 0.66 5.28 1.32 8 2 C7.98839844 2.67546875 7.97679688 3.3509375 7.96484375 4.046875 C7.95582031 4.93890625 7.94679688 5.8309375 7.9375 6.75 C7.92589844 7.63171875 7.91429688 8.5134375 7.90234375 9.421875 C7.99173802 11.7818838 8.33087179 13.74498524 9 16 C7.68 16 6.36 16 5 16 C5 14.68 5 13.36 5 12 C4.34 11.67 3.68 11.34 3 11 C3 10.34 3 9.68 3 9 C1.02 9 -0.96 9 -3 9 C-2.30058404 5.85262818 -1.23921302 2.97411124 0 0 Z " fill="#F1E2DE" transform="translate(74,39)"/>
<path d="M0 0 C0.50559908 1.43554025 1.0042749 2.8735202 1.5 4.3125 C1.7784375 5.11300781 2.056875 5.91351563 2.34375 6.73828125 C3 9 3 9 3 12 C-0.63 12.66 -4.26 13.32 -8 14 C-6.53112033 4.69709544 -6.53112033 4.69709544 -4 1.375 C-2 0 -2 0 0 0 Z " fill="#FAE4E2" transform="translate(102,70)"/>
<path d="M0 0 C0.33 0 0.66 0 1 0 C1.14695312 0.90492187 1.14695312 0.90492187 1.296875 1.828125 C2.25389113 6.94321122 3.13135571 9.38926533 7 13 C7.3125 15.6875 7.3125 15.6875 7 18 C6.67 18.33 6.34 18.66 6 19 C5.63837971 20.32594105 5.30271961 21.65938457 5 23 C4.731875 22.195625 4.46375 21.39125 4.1875 20.5625 C3.795625 19.716875 3.40375 18.87125 3 18 C2.01 17.67 1.02 17.34 0 17 C0.33 15.68 0.66 14.36 1 13 C0.278125 12.44570312 -0.44375 11.89140625 -1.1875 11.3203125 C-2.115625 10.59585938 -3.04375 9.87140625 -4 9.125 C-4.928125 8.40570313 -5.85625 7.68640625 -6.8125 6.9453125 C-7.534375 6.30335937 -8.25625 5.66140625 -9 5 C-9 4.34 -9 3.68 -9 3 C-8.01 3 -7.02 3 -6 3 C-5.67 3.66 -5.34 4.32 -5 5 C-3.35 4.67 -1.7 4.34 0 4 C0 2.68 0 1.36 0 0 Z " fill="#F6C9CC" transform="translate(66,54)"/>
<path d="M0 0 C0.9075 0.185625 1.815 0.37125 2.75 0.5625 C5.72667662 0.96320647 7.21103634 0.8263596 10 0 C11 1 11 1 11.375 3.3125 C11 6 11 6 8.5 8.3125 C7.2625 9.1478125 7.2625 9.1478125 6 10 C1.125 8.25 1.125 8.25 0 6 C-0.039992 4.00039988 -0.04346799 1.99952758 0 0 Z " fill="#F21B6D" transform="translate(119,38)"/>
<path d="M0 0 C0.33 0 0.66 0 1 0 C2.24337132 5.31258653 1.74414771 8.38592947 -0.1640625 13.4453125 C-1.70879527 18.16613135 -2.29455458 23.09507948 -3 28 C-3.99 27.34 -4.98 26.68 -6 26 C-5.25194311 17.02331735 -3.51056881 8.32810264 0 0 Z " fill="#F93887" transform="translate(12,54)"/>
<path d="M0 0 C-0.31272858 3.03890596 -0.94472397 3.95017506 -3.2578125 6.03515625 C-8.35836257 9.64167599 -13.09666372 12.90103599 -19 15 C-19.99 14.01 -20.98 13.02 -22 12 C-21.2265625 11.63648438 -20.453125 11.27296875 -19.65625 10.8984375 C-13.8193193 8.08110709 -8.53678524 5.22646887 -3.5234375 1.1015625 C-2 0 -2 0 0 0 Z " fill="#D7215F" transform="translate(132,163)"/>
<path d="M0 0 C0.66 0 1.32 0 2 0 C2 0.99 2 1.98 2 3 C2.99 3 3.98 3 5 3 C5 5.31 5 7.62 5 10 C6.32 10.66 7.64 11.32 9 12 C7.35 14.64 5.7 17.28 4 20 C2.08437709 17.12656563 1.70789101 16.22496459 1.3671875 12.98828125 C1.28339844 12.23095703 1.19960937 11.47363281 1.11328125 10.69335938 C1.03464844 9.90767578 0.95601562 9.12199219 0.875 8.3125 C0.78863281 7.51521484 0.70226562 6.71792969 0.61328125 5.89648438 C0.40151528 3.93176674 0.19978527 1.96597204 0 0 Z " fill="#BC064B" transform="translate(139,123)"/>
<path d="M0 0 C1.07765625 0.11988281 2.1553125 0.23976562 3.265625 0.36328125 C4.08546875 0.47027344 4.9053125 0.57726563 5.75 0.6875 C5.75 1.0175 5.75 1.3475 5.75 1.6875 C3.11 1.6875 0.47 1.6875 -2.25 1.6875 C-2.25 4.6575 -2.25 7.6275 -2.25 10.6875 C-3.57 10.3575 -4.89 10.0275 -6.25 9.6875 C-6.58 8.3675 -6.91 7.0475 -7.25 5.6875 C-8.24 6.3475 -9.23 7.0075 -10.25 7.6875 C-10.5 5.375 -10.5 5.375 -10.25 2.6875 C-6.97919255 -0.70910773 -4.52677546 -0.54124489 0 0 Z " fill="#16091E" transform="translate(102.25,45.3125)"/>
<path d="M0 0 C5.27293578 6.95068807 5.27293578 6.95068807 5 12 C2.03 12 -0.94 12 -4 12 C-4.1875 9.6875 -4.1875 9.6875 -4 7 C-2.5625 5.4375 -2.5625 5.4375 -1 4 C-0.28552357 1.89667109 -0.28552357 1.89667109 0 0 Z " fill="#D80B5A" transform="translate(30,127)"/>
<path d="M0 0 C10.55808656 1.92710706 10.55808656 1.92710706 15 4 C12 6 12 6 8.8125 5.625 C7.884375 5.41875 6.95625 5.2125 6 5 C6.33 5.66 6.66 6.32 7 7 C6.195625 7.268125 5.39125 7.53625 4.5625 7.8125 C3.716875 8.204375 2.87125 8.59625 2 9 C1.67 9.99 1.34 10.98 1 12 C0.67 12 0.34 12 0 12 C0 10.35 0 8.7 0 7 C-0.66 7 -1.32 7 -2 7 C-2 6.34 -2 5.68 -2 5 C-1.34 5 -0.68 5 0 5 C0 3.35 0 1.7 0 0 Z " fill="#680E40" transform="translate(78,123)"/>
<path d="M0 0 C0.33 1.32 0.66 2.64 1 4 C0.21625 4.45375 -0.5675 4.9075 -1.375 5.375 C-4.03698031 6.88428742 -4.03698031 6.88428742 -6 9 C-9.01305957 8.61121812 -10.39685311 7.73543126 -13 6 C-13 5.34 -13 4.68 -13 4 C-11.2097939 3.32942113 -9.41778511 2.6636531 -7.625 2 C-6.62726563 1.62875 -5.62953125 1.2575 -4.6015625 0.875 C-2 0 -2 0 0 0 Z " fill="#331727" transform="translate(90,102)"/>
<path d="M0 0 C0.33 0 0.66 0 1 0 C1 1.65 1 3.3 1 5 C1.66 5 2.32 5 3 5 C4.21485385 6.72421427 5.34818704 8.50634884 6.4375 10.3125 C8.40032647 13.55561502 10.16518263 16.45993428 13 19 C12.67 19.99 12.34 20.98 12 22 C8.69176295 18.87058657 6.2868018 15.92023166 4 12 C3.34 11.67 2.68 11.34 2 11 C1.67 12.65 1.34 14.3 1 16 C0.67 16 0.34 16 0 16 C0 10.72 0 5.44 0 0 Z " fill="#FCDEEA" transform="translate(40,73)"/>
<path d="M0 0 C0.33 0 0.66 0 1 0 C1.66 2.97 2.32 5.94 3 9 C2.195625 9.28875 1.39125 9.5775 0.5625 9.875 C-2.1326468 10.73262568 -2.1326468 10.73262568 -3 13 C-3.99 12.67 -4.98 12.34 -6 12 C-6 9.69 -6 7.38 -6 5 C-5.195625 4.731875 -4.39125 4.46375 -3.5625 4.1875 C-2.716875 3.795625 -1.87125 3.40375 -1 3 C-0.67 2.01 -0.34 1.02 0 0 Z " fill="#1A0320" transform="translate(116,57)"/>
<path d="M0 0 C2.69082872 0.17635452 5.32851446 0.61835921 8 1 C7.50168276 4.68754757 6.89932357 6.60490662 4 9 C2.0625 8.375 2.0625 8.375 0 7 C-0.8125 3.9375 -0.8125 3.9375 -1 1 C-0.67 0.67 -0.34 0.34 0 0 Z " fill="#ED1163" transform="translate(135,57)"/>
<path d="M0 0 C0.99 0.33 1.98 0.66 3 1 C4.08318169 6.3212615 5.152874 11.63486869 6 17 C5.01 17.66 4.02 18.32 3 19 C-0.44419134 6.51480638 -0.44419134 6.51480638 0 0 Z " fill="#ED1D6D" transform="translate(7,108)"/>
<path d="M0 0 C1.29315061 0.95632999 2.58446853 1.91513851 3.875 2.875 C4.59429687 3.40867188 5.31359375 3.94234375 6.0546875 4.4921875 C8 6 8 6 10 8 C10.125 10.625 10.125 10.625 10 13 C5.125 11.25 5.125 11.25 4 9 C3.34 9.66 2.68 10.32 2 11 C0.56331706 7.1389146 -0.11185208 4.103573 0 0 Z " fill="#F33281" transform="translate(67,56)"/>
<path d="M0 0 C0.79664062 1.01320313 0.79664062 1.01320313 1.609375 2.046875 C1.01769531 2.09585938 0.42601563 2.14484375 -0.18359375 2.1953125 C-4.58166972 2.61144367 -8.35991397 3.09653095 -12.390625 5.046875 C-13.050625 3.396875 -13.710625 1.746875 -14.390625 0.046875 C-12.48023448 -0.39768128 -10.56181845 -0.80785553 -8.640625 -1.203125 C-7.57328125 -1.43515625 -6.5059375 -1.6671875 -5.40625 -1.90625 C-2.390625 -1.953125 -2.390625 -1.953125 0 0 Z " fill="#DF9BB0" transform="translate(78.390625,107.953125)"/>
<path d="M0 0 C-0.33 1.65 -0.66 3.3 -1 5 C-0.36191406 5.32613281 0.27617188 5.65226562 0.93359375 5.98828125 C1.75988281 6.42527344 2.58617188 6.86226563 3.4375 7.3125 C4.67306641 7.95638672 4.67306641 7.95638672 5.93359375 8.61328125 C8 10 8 10 9 13 C3.47736194 11.61934049 -0.87406802 8.86990756 -5 5 C-5.33 4.01 -5.66 3.02 -6 2 C-2.25 0 -2.25 0 0 0 Z " fill="#E3D5D7" transform="translate(73,110)"/>
<path d="M0 0 C1.32 0 2.64 0 4 0 C4 1.65 4 3.3 4 5 C4.99 5 5.98 5 7 5 C6.67 6.65 6.34 8.3 6 10 C5.01 10.33 4.02 10.66 3 11 C2.34 10.67 1.68 10.34 1 10 C0.5859375 7.71484375 0.5859375 7.71484375 0.375 4.9375 C0.30023438 4.01839844 0.22546875 3.09929687 0.1484375 2.15234375 C0.09945312 1.44207031 0.05046875 0.73179688 0 0 Z " fill="#F01366" transform="translate(143,123)"/>
<path d="M0 0 C-0.56508523 3.47339053 -1.62643336 4.95006976 -4.3125 7.1875 C-5.20388672 7.95126953 -5.20388672 7.95126953 -6.11328125 8.73046875 C-8.09091784 10.0611766 -9.67100075 10.57327387 -12 11 C-10.60807296 7.86989542 -8.97357774 5.67663308 -6.5625 3.25 C-5.96566406 2.63640625 -5.36882812 2.0228125 -4.75390625 1.390625 C-3 0 -3 0 0 0 Z " fill="#F8EEF1" transform="translate(140,151)"/>
<path d="M0 0 C0 0.33 0 0.66 0 1 C-2.09838044 1.58371496 -4.20402517 2.14137045 -6.3125 2.6875 C-8.07013672 3.15736328 -8.07013672 3.15736328 -9.86328125 3.63671875 C-13 4 -13 4 -14.91796875 2.58203125 C-15.27503906 2.05996094 -15.63210937 1.53789062 -16 1 C-14.27708363 0.4387698 -12.54626261 -0.09822933 -10.8125 -0.625 C-9.84957031 -0.92664063 -8.88664062 -1.22828125 -7.89453125 -1.5390625 C-4.56284172 -2.06961495 -2.96704544 -1.50793169 0 0 Z " fill="#FB3987" transform="translate(74,7)"/>
<path d="M0 0 C0.53625 0.268125 1.0725 0.53625 1.625 0.8125 C1.4375 2.625 1.4375 2.625 0.625 4.8125 C-1.9375 6.5625 -1.9375 6.5625 -4.375 7.8125 C-5.695 6.8225 -7.015 5.8325 -8.375 4.8125 C-2.95961538 -0.23365385 -2.95961538 -0.23365385 0 0 Z " fill="#710C41" transform="translate(90.375,106.1875)"/>
<path d="M0 0 C1.98 0.99 1.98 0.99 4 2 C4 3.32 4 4.64 4 6 C4.66 6 5.32 6 6 6 C6.66 9.63 7.32 13.26 8 17 C7.34 17.33 6.68 17.66 6 18 C4.99600476 15.37646482 3.99665555 12.75132205 3 10.125 C2.57074219 9.00544922 2.57074219 9.00544922 2.1328125 7.86328125 C0 2.2265625 0 2.2265625 0 0 Z " fill="#DBD1D9" transform="translate(76,70)"/>
<path d="M0 0 C3.08669204 3.08669204 3.44855089 3.91927658 4 8 C3.34 8 2.68 8 2 8 C2 12.29 2 16.58 2 21 C1.34 21 0.68 21 0 21 C0 14.07 0 7.14 0 0 Z " fill="#161435" transform="translate(73,67)"/>
<path d="M0 0 C2.31 0.66 4.62 1.32 7 2 C7.33 4.64 7.66 7.28 8 10 C7.01 10.33 6.02 10.66 5 11 C5.33 9.68 5.66 8.36 6 7 C4.35 6.67 2.7 6.34 1 6 C1.99 5.34 2.98 4.68 4 4 C2.68 3.67 1.36 3.34 0 3 C0 2.01 0 1.02 0 0 Z " fill="#F52767" transform="translate(101,114)"/>
<path d="M0 0 C0.33 0 0.66 0 1 0 C1 2.64 1 5.28 1 8 C1.66 8 2.32 8 3 8 C3 8.99 3 9.98 3 11 C1.02 11.33 -0.96 11.66 -3 12 C-3.33 10.02 -3.66 8.04 -4 6 C-3.01 6 -2.02 6 -1 6 C-0.67 4.02 -0.34 2.04 0 0 Z " fill="#B40147" transform="translate(39,128)"/>
<path d="M0 0 C0.99 0.66 1.98 1.32 3 2 C3.33 1.34 3.66 0.68 4 0 C5 1 5 1 5.09765625 3.06640625 C5.08605469 3.89011719 5.07445313 4.71382813 5.0625 5.5625 C5.05347656 6.38878906 5.04445313 7.21507813 5.03515625 8.06640625 C5.02355469 8.70449219 5.01195313 9.34257813 5 10 C2.06799526 7.14723863 -0.64315404 4.34920216 -3 1 C-2.01 0.67 -1.02 0.34 0 0 Z " fill="#E9DCE2" transform="translate(68,71)"/>
<path d="M0 0 C0.66 0.33 1.32 0.66 2 1 C1.67 4.96 1.34 8.92 1 13 C0.01 12.34 -0.98 11.68 -2 11 C-1.85892253 9.54119891 -1.71197585 8.08296449 -1.5625 6.625 C-1.48128906 5.81289062 -1.40007813 5.00078125 -1.31640625 4.1640625 C-1 2 -1 2 0 0 Z " fill="#F9307B" transform="translate(8,69)"/>
<path d="M0 0 C1.65 0.33 3.3 0.66 5 1 C5 1.66 5 2.32 5 3 C10.28 3 15.56 3 21 3 C21 3.33 21 3.66 21 4 C18.14576808 4.02718316 15.29179985 4.04692705 12.4375 4.0625 C11.23770508 4.07506836 11.23770508 4.07506836 10.01367188 4.08789062 C5.22836896 4.10742247 0.71854949 3.80437018 -4 3 C-2.68 2.67 -1.36 2.34 0 2 C0 1.34 0 0.68 0 0 Z " fill="#C73469" transform="translate(73,180)"/>
<path d="M0 0 C4.20240011 3.71750779 6.99782679 8.31660979 10 13 C9.01 13.495 9.01 13.495 8 14 C4.084859 10.64416485 1.9204226 6.71933638 0 2 C0 1.34 0 0.68 0 0 Z " fill="#E8C5D7" transform="translate(43,84)"/>
<path d="M0 0 C1.60101563 0.20882812 1.60101563 0.20882812 3.234375 0.421875 C4.31203125 0.55078125 5.3896875 0.6796875 6.5 0.8125 C7.72976562 0.99039063 7.72976562 0.99039063 8.984375 1.171875 C8.984375 1.501875 8.984375 1.831875 8.984375 2.171875 C6.344375 2.171875 3.704375 2.171875 0.984375 2.171875 C0.654375 3.161875 0.324375 4.151875 -0.015625 5.171875 C-2.325625 4.841875 -4.635625 4.511875 -7.015625 4.171875 C-4.72098594 1.29800667 -3.75494772 0.21401256 0 0 Z " fill="#1B0C2E" transform="translate(99.015625,44.828125)"/>
<path d="M0 0 C3.39417765 3.12621626 5.6062718 5.56541027 7 10 C6.01 10 5.02 10 4 10 C2.578125 8.57421875 2.578125 8.57421875 1.25 6.6875 C0.80140625 6.07261719 0.3528125 5.45773438 -0.109375 4.82421875 C-1 3 -1 3 0 0 Z " fill="#F72878" transform="translate(143,33)"/>
<path d="M0 0 C5.28 1.32 10.56 2.64 16 4 C15.67 4.66 15.34 5.32 15 6 C9.54520815 5.43179252 5.08940744 4.05362055 0 2 C0 1.34 0 0.68 0 0 Z " fill="#10021D" transform="translate(47,127)"/>
<path d="M0 0 C2 1.375 2 1.375 4 3 C4 3.66 4 4.32 4 5 C5.32 5.33 6.64 5.66 8 6 C7.67 7.32 7.34 8.64 7 10 C7 9.01 7 8.02 7 7 C5.02 7.66 3.04 8.32 1 9 C0.63877119 7.68942607 0.28619689 6.37646376 -0.0625 5.0625 C-0.35833984 3.96615234 -0.35833984 3.96615234 -0.66015625 2.84765625 C-0.77230469 2.23792969 -0.88445312 1.62820312 -1 1 C-0.67 0.67 -0.34 0.34 0 0 Z " fill="#341E36" transform="translate(98,55)"/>
<path d="M0 0 C0.33 0 0.66 0 1 0 C2.0257259 4.41062136 2.03684712 6.92630576 0 11 C-1.32 11 -2.64 11 -4 11 C-3.625 9.0625 -3.625 9.0625 -3 7 C-2.34 6.67 -1.68 6.34 -1 6 C-1.66 5.67 -2.32 5.34 -3 5 C-1.125 1.125 -1.125 1.125 0 0 Z " fill="#BFB9B9" transform="translate(95,50)"/>
<path d="M0 0 C2.475 0.495 2.475 0.495 5 1 C5.66 3.97 6.32 6.94 7 10 C5.68 10 4.36 10 3 10 C3 8.68 3 7.36 3 6 C2.34 5.67 1.68 5.34 1 5 C0.375 2.4375 0.375 2.4375 0 0 Z " fill="#B9A5A6" transform="translate(76,45)"/>
<path d="M0 0 C2.375 -0.125 2.375 -0.125 5 0 C7 2 7 2 7.125 5.125 C7.08375 6.07375 7.0425 7.0225 7 8 C6.67 7.34 6.34 6.68 6 6 C5.360625 5.896875 4.72125 5.79375 4.0625 5.6875 C3.381875 5.460625 2.70125 5.23375 2 5 C0.75 2.4375 0.75 2.4375 0 0 Z " fill="#0F0513" transform="translate(107,81)"/>
<path d="M0 0 C0.66 0 1.32 0 2 0 C2 0.66 2 1.32 2 2 C2.99 2.33 3.98 2.66 5 3 C4.67 3.99 4.34 4.98 4 6 C2.02 6.33 0.04 6.66 -2 7 C-1.125 2.25 -1.125 2.25 0 0 Z " fill="#FC6CAC" transform="translate(42,37)"/>
<path d="M0 0 C2.4375 1.4375 2.4375 1.4375 3.25 4.5625 C3.311875 5.51125 3.37375 6.46 3.4375 7.4375 C2.7775 7.1075 2.1175 6.7775 1.4375 6.4375 C1.4375 5.7775 1.4375 5.1175 1.4375 4.4375 C-0.8725 4.1075 -3.1825 3.7775 -5.5625 3.4375 C-5.2325 2.4475 -4.9025 1.4575 -4.5625 0.4375 C-2.5625 -0.5625 -2.5625 -0.5625 0 0 Z " fill="#340620" transform="translate(95.5625,127.5625)"/>
<path d="M0 0 C1.32 0 2.64 0 4 0 C4.042721 1.66611905 4.04063832 3.33382885 4 5 C3 6 3 6 -0.5625 6.0625 C-1.696875 6.041875 -2.83125 6.02125 -4 6 C-3.01 5.67 -2.02 5.34 -1 5 C-0.67 3.35 -0.34 1.7 0 0 Z " fill="#1C0822" transform="translate(82,34)"/>
<path d="M0 0 C0.598125 0.226875 1.19625 0.45375 1.8125 0.6875 C0.83641783 3.61574652 -0.29536631 5.30176621 -2.1875 7.6875 C-4.1875 6.6875 -4.1875 6.6875 -5 4.8125 C-5.1875 2.6875 -5.1875 2.6875 -4 0.875 C-2.1875 -0.3125 -2.1875 -0.3125 0 0 Z " fill="#FCF9F9" transform="translate(95.1875,119.3125)"/>
<path d="M0 0 C0.33 0.66 0.66 1.32 1 2 C0.21625 2.45375 -0.5675 2.9075 -1.375 3.375 C-4.03698031 4.88428742 -4.03698031 4.88428742 -6 7 C-6.99 7 -7.98 7 -9 7 C-9 6.01 -9 5.02 -9 4 C-8.34 4 -7.68 4 -7 4 C-6.67 3.01 -6.34 2.02 -6 1 C-4.02 0.67 -2.04 0.34 0 0 Z " fill="#4C062C" transform="translate(90,104)"/>
<path d="M0 0 C3.55780196 0.60990891 6.6828589 1.5783681 10 3 C9.34 3.66 8.68 4.32 8 5 C4.375 4.625 4.375 4.625 1 4 C0.67 2.68 0.34 1.36 0 0 Z " fill="#BC1E57" transform="translate(55,175)"/>
<path d="M0 0 C-0.50298788 4.40114397 -2.08772731 6.71195019 -5 10 C-6 9 -6 9 -6.3125 6.6875 C-5.88663908 3.02509606 -3.96976171 0 0 0 Z " fill="#1D0B1D" transform="translate(108,63)"/>
<path d="M0 0 C0.33 0 0.66 0 1 0 C1 2.31 1 4.62 1 7 C2.32 7.66 3.64 8.32 5 9 C4.01 10.32 3.02 11.64 2 13 C1.34 12.67 0.68 12.34 0 12 C0 8.04 0 4.08 0 0 Z " fill="#D10F57" transform="translate(143,126)"/>
<path d="M0 0 C2.3125 1.9375 2.3125 1.9375 4 4 C3.34 5.32 2.68 6.64 2 8 C-0.33333333 5.66666667 -2.66666667 3.33333333 -5 1 C-2.75 0.25 -2.75 0.25 0 0 Z " fill="#E6B5BF" transform="translate(105,81)"/>
<path d="M0 0 C-0.55728913 3.34373475 -1.35173889 6.03312999 -3 9 C-3 8.01 -3 7.02 -3 6 C-3.99 6.33 -4.98 6.66 -6 7 C-5.39816251 4.97954558 -4.72693904 2.97888961 -4 1 C-2 0 -2 0 0 0 Z " fill="#FCDBE9" transform="translate(20,52)"/>
<path d="M0 0 C0.33 0.66 0.66 1.32 1 2 C0.21625 2.37125 -0.5675 2.7425 -1.375 3.125 C-4.60628829 5.43306306 -5.07506212 7.21616321 -6 11 C-6.99 10.67 -7.98 10.34 -9 10 C-8.62669176 7.27425729 -8.20805399 6.19177915 -6.15234375 4.296875 C-5.42144531 3.78640625 -4.69054688 3.2759375 -3.9375 2.75 C-3.20402344 2.22921875 -2.47054687 1.7084375 -1.71484375 1.171875 C-1.14894531 0.78515625 -0.58304688 0.3984375 0 0 Z " fill="#F597A4" transform="translate(65,90)"/>
<path d="M0 0 C3.14958831 3.42346555 3.56179109 6.44262737 4 11 C1.4375 8.875 1.4375 8.875 -1 6 C-0.8125 2.6875 -0.8125 2.6875 0 0 Z " fill="#E9D3DB" transform="translate(58,73)"/>
<path d="M0 0 C0.99 0.66 1.98 1.32 3 2 C2.484375 2.4125 1.96875 2.825 1.4375 3.25 C0.963125 3.8275 0.48875 4.405 0 5 C0.22757731 7.16299211 0.22757731 7.16299211 1 9 C-0.32 9 -1.64 9 -3 9 C-2.5020163 5.26512223 -2.12508244 3.18762365 0 0 Z " fill="#EDE2E3" transform="translate(91,117)"/>
<path d="M0 0 C0.33 0 0.66 0 1 0 C1 3.3 1 6.6 1 10 C0.34 10 -0.32 10 -1 10 C-1 12.97 -1 15.94 -1 19 C-3 17 -3 17 -3.01171875 14.87109375 C-2.90472656 14.06800781 -2.79773438 13.26492187 -2.6875 12.4375 C-2.58824219 11.63183594 -2.48898438 10.82617188 -2.38671875 9.99609375 C-2 8 -2 8 -1 7 C-0.63239269 4.67182036 -0.29758419 2.3381615 0 0 Z " fill="#F12777" transform="translate(21,103)"/>
<path d="M0 0 C1.32 0 2.64 0 4 0 C4.5625 1.9375 4.5625 1.9375 5 4 C4.67 4.33 4.34 4.66 4 5 C3.63837971 6.32594105 3.30271961 7.65938457 3 9 C2.731875 8.195625 2.46375 7.39125 2.1875 6.5625 C1.795625 5.716875 1.40375 4.87125 1 4 C0.01 3.67 -0.98 3.34 -2 3 C-1.34 2.01 -0.68 1.02 0 0 Z " fill="#D27F96" transform="translate(68,68)"/>
<path d="M0 0 C2 0.6875 2 0.6875 4 2.6875 C3.34 3.3475 2.68 4.0075 2 4.6875 C-0.26274788 4.33394564 -1.95088852 3.71205574 -4 2.6875 C-4 2.0275 -4 1.3675 -4 0.6875 C-2 -0.3125 -2 -0.3125 0 0 Z " fill="#FA62A8" transform="translate(28,62.3125)"/>
<path d="M0 0 C1.32 0 2.64 0 4 0 C4.33 2.31 4.66 4.62 5 7 C4.01 7 3.02 7 2 7 C1.34 4.69 0.68 2.38 0 0 Z " fill="#FDF1F5" transform="translate(147,49)"/>
<path d="M0 0 C4 1 4 1 7 3 C7 3.66 7 4.32 7 5 C8.32 5.33 9.64 5.66 11 6 C9.02 6.33 7.04 6.66 5 7 C3.35 4.69 1.7 2.38 0 0 Z " fill="#F2C8CF" transform="translate(58,102)"/>
<path d="M0 0 C0.99 0.33 1.98 0.66 3 1 C2.88590407 2.45922693 2.75834456 3.91740598 2.625 5.375 C2.55539063 6.18710938 2.48578125 6.99921875 2.4140625 7.8359375 C2 10 2 10 0 12 C0 8.04 0 4.08 0 0 Z " fill="#61263F" transform="translate(110,86)"/>
<path d="M0 0 C0.598125 0.763125 1.19625 1.52625 1.8125 2.3125 C3.46959332 4.3483575 5.10297674 6.1978279 7 8 C6.67 8.99 6.34 9.98 6 11 C0.21293801 5.51752022 0.21293801 5.51752022 -1 2 C-0.67 1.34 -0.34 0.68 0 0 Z " fill="#FAE9EF" transform="translate(46,84)"/>
<path d="M0 0 C0.66 0 1.32 0 2 0 C2 0.99 2 1.98 2 3 C0.7934375 3.8971875 0.7934375 3.8971875 -0.4375 4.8125 C-3.28845931 6.81773871 -3.28845931 6.81773871 -3.8125 10.25 C-3.874375 11.1575 -3.93625 12.065 -4 13 C-4.33 13 -4.66 13 -5 13 C-5 10.03 -5 7.06 -5 4 C-3.68 3.34 -2.36 2.68 -1 2 C-0.67 1.34 -0.34 0.68 0 0 Z " fill="#F39EAD" transform="translate(100,67)"/>
<path d="M0 0 C2 3 2 3 3 6 C1.625 7.5 1.625 7.5 0 9 C-0.66 9 -1.32 9 -2 9 C-2 7.35 -2 5.7 -2 4 C-1.34 4 -0.68 4 0 4 C0 2.68 0 1.36 0 0 Z " fill="#1B1225" transform="translate(62,45)"/>
<path d="M0 0 C-0.25 1.875 -0.25 1.875 -1 4 C-3.0625 5.25 -3.0625 5.25 -5 6 C-5.33 4.35 -5.66 2.7 -6 1 C-3.92446352 0.4465236 -2.15634036 0 0 0 Z " fill="#F0176D" transform="translate(108,28)"/>
<path d="M0 0 C0.66 0 1.32 0 2 0 C2.33 1.98 2.66 3.96 3 6 C2.01 6.66 1.02 7.32 0 8 C-0.38063221 5.6739143 -0.71269945 3.33944736 -1 1 C-0.67 0.67 -0.34 0.34 0 0 Z " fill="#D8316B" transform="translate(10,119)"/>
<path d="M0 0 C0.66 0.99 1.32 1.98 2 3 C1.01 4.485 1.01 4.485 0 6 C-2.625 6.1875 -2.625 6.1875 -5 6 C-2.25 1.125 -2.25 1.125 0 0 Z " fill="#E3B8C6" transform="translate(103,106)"/>
<path d="M0 0 C1.32 0.66 2.64 1.32 4 2 C3.01 3.485 3.01 3.485 2 5 C-1.125 5.1875 -1.125 5.1875 -4 5 C-4 4.34 -4 3.68 -4 3 C-3.01 3 -2.02 3 -1 3 C-0.67 2.01 -0.34 1.02 0 0 Z " fill="#18041C" transform="translate(131,92)"/>
<path d="M0 0 C0.33 1.32 0.66 2.64 1 4 C-4.2734375 7.22265625 -4.2734375 7.22265625 -6 8 C-6.66 7.67 -7.32 7.34 -8 7 C-2.25 2 -2.25 2 0 2 C0 1.34 0 0.68 0 0 Z " fill="#E2234F" transform="translate(90,81)"/>
<path d="M0 0 C0.99 0.33 1.98 0.66 3 1 C3.33 2.98 3.66 4.96 4 7 C3.01 7 2.02 7 1 7 C0.67 4.69 0.34 2.38 0 0 Z " fill="#F7E8ED" transform="translate(19,135)"/>
<path d="M0 0 C-0.66 2.31 -1.32 4.62 -2 7 C-4 5.625 -4 5.625 -6 4 C-6 3.34 -6 2.68 -6 2 C-2.25 0 -2.25 0 0 0 Z " fill="#ECCBD4" transform="translate(73,110)"/>
<path d="M0 0 C1.65 1.65 3.3 3.3 5 5 C4.34 6.98 3.68 8.96 3 11 C0.87953208 7.46588679 0.46800711 4.05606165 0 0 Z " fill="#F48094" transform="translate(67,56)"/>
<path d="M0 0 C2.64 0.33 5.28 0.66 8 1 C8 1.66 8 2.32 8 3 C5.69 3.33 3.38 3.66 1 4 C0.67 2.68 0.34 1.36 0 0 Z " fill="#FB4A97" transform="translate(91,4)"/>
<path d="M0 0 C1.32 0.66 2.64 1.32 4 2 C2.71034824 3.37562854 1.37310707 4.70766393 0 6 C-0.66 6 -1.32 6 -2 6 C-2.33 5.01 -2.66 4.02 -3 3 C-2.01 2.01 -1.02 1.02 0 0 Z " fill="#E22F6D" transform="translate(134,159)"/>
<path d="M0 0 C0.33 0.99 0.66 1.98 1 3 C-0.6875 4.125 -0.6875 4.125 -3 5 C-5.75 4.125 -5.75 4.125 -8 3 C-7.67 2.34 -7.34 1.68 -7 1 C-4.69 1.33 -2.38 1.66 0 2 C0 1.34 0 0.68 0 0 Z " fill="#F1C3C9" transform="translate(103,125)"/>
<path d="M0 0 C2.5 -0.375 2.5 -0.375 5 0 C5.66 0.99 6.32 1.98 7 3 C4.03 3 1.06 3 -2 3 C-1.34 2.01 -0.68 1.02 0 0 Z " fill="#FC4386" transform="translate(115,114)"/>
<path d="M0 0 C2.475 0.99 2.475 0.99 5 2 C4.625 3.9375 4.625 3.9375 4 6 C3.01 6.495 3.01 6.495 2 7 C1.34 4.69 0.68 2.38 0 0 Z " fill="#6E2844" transform="translate(103,74)"/>
<path d="M0 0 C2.475 0.495 2.475 0.495 5 1 C5 1.66 5 2.32 5 3 C5.66 3 6.32 3 7 3 C7 3.66 7 4.32 7 5 C6.01 5.33 5.02 5.66 4 6 C0 1.125 0 1.125 0 0 Z " fill="#131B45" transform="translate(52,64)"/>
<path d="M0 0 C0 0.66 0 1.32 0 2 C-1.32 2 -2.64 2 -4 2 C-4.33 2.66 -4.66 3.32 -5 4 C-6.65 3.67 -8.3 3.34 -10 3 C-4.375 -1.3125 -4.375 -1.3125 0 0 Z " fill="#2C1D46" transform="translate(57,63)"/>
<path d="M0 0 C0.99 0.33 1.98 0.66 3 1 C2.67 3.31 2.34 5.62 2 8 C1.01 7.67 0.02 7.34 -1 7 C-1.04254356 5.00045254 -1.04080783 2.99958364 -1 1 C-0.67 0.67 -0.34 0.34 0 0 Z " fill="#E2C7CA" transform="translate(65,44)"/>
<path d="M0 0 C4.21878192 -0.19622241 7.17010894 0.19769832 11 2 C8 4 8 4 5.8125 3.625 C5.214375 3.41875 4.61625 3.2125 4 3 C4 2.34 4 1.68 4 1 C2.68 0.67 1.36 0.34 0 0 Z " fill="#4C022C" transform="translate(82,127)"/>
<path d="M0 0 C1.98 0.99 1.98 0.99 4 2 C3.01 2.495 3.01 2.495 2 3 C2 4.98 2 6.96 2 9 C2.66 9.33 3.32 9.66 4 10 C2.68 10.33 1.36 10.66 0 11 C0 7.37 0 3.74 0 0 Z " fill="#0F0A2C" transform="translate(47,112)"/>
<path d="M0 0 C0.66 0 1.32 0 2 0 C2.33 1.65 2.66 3.3 3 5 C1.02 5.99 -0.96 6.98 -3 8 C-2.625 6.0625 -2.625 6.0625 -2 4 C-1.34 3.67 -0.68 3.34 0 3 C0 2.01 0 1.02 0 0 Z " fill="#E81A69" transform="translate(26,83)"/>
<path d="M0 0 C0.99 0.33 1.98 0.66 3 1 C1.68 2.32 0.36 3.64 -1 5 C-1.99 4.67 -2.98 4.34 -4 4 C-2.68 2.68 -1.36 1.36 0 0 Z " fill="#D21753" transform="translate(122,169)"/>
<path d="M0 0 C0.99 0.495 0.99 0.495 2 1 C2.40729228 3.32156597 2.74438677 5.6568787 3 8 C2.01 8 1.02 8 0 8 C0 5.36 0 2.72 0 0 Z " fill="#14162B" transform="translate(79,81)"/>
<path d="M0 0 C0 1.32 0 2.64 0 4 C-0.99 4.33 -1.98 4.66 -3 5 C-5 2 -5 2 -6 0 C-3.50907189 -1.24546405 -2.58919267 -0.7767578 0 0 Z " fill="#F65F8F" transform="translate(94,80)"/>
<path d="M0 0 C2.31 0.66 4.62 1.32 7 2 C6.67 2.99 6.34 3.98 6 5 C4.02 4.34 2.04 3.68 0 3 C0 2.01 0 1.02 0 0 Z " fill="#E62566" transform="translate(101,114)"/>
<path d="M0 0 C2 2 2 2 2.125 4.625 C2.08375 5.40875 2.0425 6.1925 2 7 C1.01 7.495 1.01 7.495 0 8 C-0.38063221 5.6739143 -0.71269945 3.33944736 -1 1 C-0.67 0.67 -0.34 0.34 0 0 Z " fill="#FBF3F5" transform="translate(13,116)"/>
<path d="M0 0 C-1.98953324 1.98953324 -3.40434522 2.97746933 -6 4 C-6.99 3.67 -7.98 3.34 -9 3 C-9 2.34 -9 1.68 -9 1 C-5.8035914 -0.06546953 -3.34252724 -0.07427838 0 0 Z " fill="#F7D6DE" transform="translate(94,99)"/>
<path d="M0 0 C1.98 0.495 1.98 0.495 4 1 C4 2.32 4 3.64 4 5 C1.525 4.01 1.525 4.01 -1 3 C-0.67 2.01 -0.34 1.02 0 0 Z " fill="#FB5198" transform="translate(144,73)"/>
<path d="M0 0 C0.99 0.33 1.98 0.66 3 1 C2.01 1.495 2.01 1.495 1 2 C1.33 2.99 1.66 3.98 2 5 C0.35 4.67 -1.3 4.34 -3 4 C-2.67 3.01 -2.34 2.02 -2 1 C-1.34 0.67 -0.68 0.34 0 0 Z " fill="#FCE5E4" transform="translate(78,51)"/>
<path d="M0 0 C2.31 0.66 4.62 1.32 7 2 C7 2.33 7 2.66 7 3 C3.7 3 0.4 3 -3 3 C-2.01 2.01 -1.02 1.02 0 0 Z " fill="#C8235D" transform="translate(93,180)"/>
<path d="M0 0 C1.9375 0.3125 1.9375 0.3125 4 1 C4.33 1.99 4.66 2.98 5 4 C4.01 4.33 3.02 4.66 2 5 C1.34 4.34 0.68 3.68 0 3 C0 2.01 0 1.02 0 0 Z " fill="#CB275E" transform="translate(36,163)"/>
<path d="M0 0 C0.99 0 1.98 0 3 0 C3 1.65 3 3.3 3 5 C2.34 4.67 1.68 4.34 1 4 C0.34 4.66 -0.32 5.32 -1 6 C-1.042721 4.33388095 -1.04063832 2.66617115 -1 1 C-0.67 0.67 -0.34 0.34 0 0 Z " fill="#C3084D" transform="translate(125,120)"/>
</svg>
